<?xml version="1.0" encoding="UTF-8" standalone="no"?>
<!DOCTYPE svg PUBLIC "-//W3C//DTD SVG 1.1//EN"
 "http://www.w3.org/Graphics/SVG/1.1/DTD/svg11.dtd">
<!-- Generated by graphviz version 2.26.3 (20100126.1600)
 -->
<!-- Title: G Pages: 1 -->
<svg width="98pt" height="206pt"
 viewBox="0.00 0.00 98.00 206.00" xmlns="http://www.w3.org/2000/svg" xmlns:xlink="http://www.w3.org/1999/xlink">
<g id="graph1" class="graph" transform="scale(1 1) rotate(0) translate(4 202)">
<title>G</title>
<polygon fill="white" stroke="white" points="-4,5 -4,-202 95,-202 95,5 -4,5"/>
<g id="graph2" class="cluster"><title>cluster_kaLibrary</title>
<polyline fill="none" stroke="gray" points="20,-8 70,-8 "/>
<path fill="none" stroke="gray" d="M70,-8C76,-8 82,-14 82,-20"/>
<polyline fill="none" stroke="gray" points="82,-20 82,-178 "/>
<path fill="none" stroke="gray" d="M82,-178C82,-184 76,-190 70,-190"/>
<polyline fill="none" stroke="gray" points="70,-190 20,-190 "/>
<path fill="none" stroke="gray" d="M20,-190C14,-190 8,-184 8,-178"/>
<polyline fill="none" stroke="gray" points="8,-178 8,-20 "/>
<path fill="none" stroke="gray" d="M8,-20C8,-14 14,-8 20,-8"/>
<text text-anchor="middle" x="45" y="-176.1" font-family="Times Roman,serif" font-size="11.00" fill="gray">kaLibrary</text>
</g>
<!-- \\kaLibrary\\Debug -->
<g id="node2" class="node"><title>\\kaLibrary\\Debug</title>
<a xlink:href="Debug.html" xlink:title="Debug" target="_parent">
<polygon fill="none" stroke="black" points="72,-160 18,-160 18,-124 72,-124 72,-160"/>
<text text-anchor="middle" x="45" y="-139.1" font-family="Courier,monospace" font-size="11.00">Debug</text>
</a>
</g>
<!-- \\kaLibrary\\String -->
<g id="node3" class="node"><title>\\kaLibrary\\String</title>
<a xlink:href="String.class.html" xlink:title="String" target="_parent">
<polygon fill="none" stroke="black" points="73,-106 17,-106 17,-70 73,-70 73,-106"/>
<text text-anchor="middle" x="45" y="-85.1" font-family="Courier,monospace" font-size="11.00">String</text>
</a>
</g>
<!-- \\kaLibrary\\Curl -->
<g id="node4" class="node"><title>\\kaLibrary\\Curl</title>
<a xlink:href="Curl.class.html" xlink:title="Curl" target="_parent">
<polygon fill="none" stroke="black" points="72,-52 18,-52 18,-16 72,-16 72,-52"/>
<text text-anchor="middle" x="45" y="-31.1" font-family="Courier,monospace" font-size="11.00">Curl</text>
</a>
</g>
</g>
</svg>
